# xmcd CD database file
#
# Track frame offsets:
#	182
#	16447
#	37175
#
# Disc length: 749 seconds
#
# Revision: 4
# Processed by: cddbd v1.5.2PL0 Copyright (c) Steve Scherf et al.
# Submitted via: CDex 1.50
#
DISCID=2002eb03
DTITLE=Sir Mix-A-Lot - Ride
DYEAR=1994
DGENRE=Rap
TTITLE0=Ride(Album Version)
TTITLE1=Ride(Remix)
TTITLE2=Ride(Strange House Mix)
EXTD=CD Single YEAR: 1994
EXTT0=
EXTT1=
EXTT2=
PLAYORDER=
